<svg width="512" height="512" xmlns="http://www.w3.org/2000/svg">

 <g>
  <title>background</title>
  <rect fill="none" id="canvas_background" height="402" width="582" y="-1" x="-1"/>
 </g>
 <g>
  <title>Layer 1</title>
  <ellipse stroke="#000" ry="246.945373" rx="244.37302" id="svg_2" cy="257.479114" cx="257.028895" stroke-width="1.5" fill="#fff"/>
  <path id="svg_1" d="m319.59,230.632l36.902,0l0,101.178c0,13.066 -10.624,23.68 -23.68,23.68l-151.624,0c-13.062,0 -23.686,-10.614 -23.686,-23.68l0,-101.178l36.892,0c-3.186,7.836 -4.976,16.396 -4.976,25.366c0,37.256 30.31,67.586 67.58,67.586c37.266,0 67.576,-30.33 67.576,-67.586c0.002,-8.97 -1.798,-17.528 -4.984,-25.366zm-62.596,68.862c23.974,0 43.506,-19.512 43.506,-43.496c0,-9.472 -3.086,-18.216 -8.236,-25.366c-7.906,-10.952 -20.748,-18.136 -35.266,-18.136s-27.36,7.184 -35.276,18.136c-5.15,7.148 -8.226,15.894 -8.23,25.366c0.002,23.984 19.514,43.496 43.502,43.496zm96.18,-139.424l-43.946,0l0,43.946l43.946,0l0,-43.946zm119.828,95.93c0,119.294 -96.708,216 -216.002,216s-216,-96.706 -216,-216s96.708,-216 216,-216c119.294,0 216.002,96.706 216.002,216zm-92.426,-75.82c-0.006,-26.338 -21.426,-47.754 -47.764,-47.754l-151.624,0c-26.338,0 -47.764,21.422 -47.764,47.76l0,151.628c0,26.338 21.426,47.76 47.764,47.76l151.628,0c26.338,0 47.76,-21.422 47.76,-47.76l0,-151.634l0,0zm132.424,75.82c0,141.386 -114.616,256 -256,256s-256,-114.616 -256,-256s114.616,-256 256,-256s256,114.614 256,256zm-28,0c0,-125.922 -102.08,-228 -228,-228s-228,102.078 -228,228s102.08,228.002 228,228.002s228,-102.082 228,-228.002z"/>
 </g>
</svg>