<svg width="512" height="512" xmlns="http://www.w3.org/2000/svg">

 <g>
  <title>background</title>
  <rect fill="none" id="canvas_background" height="402" width="582" y="-1" x="-1"/>
 </g>
 <g>
  <title>Layer 1</title>
  <ellipse stroke="#000" ry="247.50462" rx="247.50462" id="svg_4" cy="258.194672" cx="257.13274" stroke-width="1.5" fill="#fff"/>
  <path id="svg_2" d="m257,40c-119.292,0 -216,96.706 -216,216s96.706,216 216,216s216,-96.706 216,-216s-96.706,-216 -216,-216zm-53.802,337.414c0,1.708 -0.674,3.244 -1.992,4.586c-1.322,1.35 -2.798,2 -4.472,2l-44.316,0c-1.67,0 -3.18,-0.65 -4.502,-2c-1.284,-1.344 -1.958,-2.878 -1.958,-4.586l0,-171.026c0,-1.704 0.676,-3.242 1.958,-4.586c1.322,-1.316 2.832,-2.006 4.502,-2.006l44.316,0c1.676,0 3.15,0.626 4.472,1.932c1.318,1.286 1.992,2.82 1.992,4.66l0,171.026zm-27.838,-211.11c-17.31,0 -30.36,-11.094 -30.36,-27.224c0,-16.122 13.048,-35.082 30.36,-35.082c17.308,0 31.342,13.942 31.342,31.146c-0.002,17.208 -14.034,31.16 -31.342,31.16zm217.64,211.11c0,1.708 -0.674,3.244 -1.96,4.586c-1.316,1.35 -2.83,2 -4.502,2l-45.57,0c-1.672,0 -3.12,-0.65 -4.342,-2c-1.188,-1.344 -1.798,-2.878 -1.798,-4.586l0,-97.046c0,-8.134 -1.448,-14.358 -4.344,-18.648c-2.894,-4.264 -8.75,-6.432 -17.556,-6.432c-5.6,0 -10.26,0.952 -14.058,2.814c-3.762,1.876 -6.754,4.398 -8.906,7.544c-2.156,3.184 -3.636,6.954 -4.468,11.34c-0.87,4.388 -1.288,9.108 -1.288,14.162l0,86.266c0,1.708 -0.642,3.244 -1.962,4.586c-1.318,1.35 -2.798,2 -4.502,2l-44.282,0c-1.674,0 -3.184,-0.65 -4.5,-2c-1.322,-1.344 -1.964,-2.878 -1.964,-4.586l0,-171.026c0,-1.704 0.642,-3.242 1.964,-4.586c1.316,-1.316 2.828,-2.006 4.5,-2.006l43.03,0c3.472,0 5.404,1.346 5.822,4.11c0.444,2.714 0.642,5.304 0.642,7.796c5.98,-5.71 12.8,-9.768 20.418,-12.222c7.626,-2.464 15.534,-3.708 23.734,-3.708c19.974,0 35.92,5.108 47.916,15.336c11.998,10.262 17.976,37.754 17.976,58.96l0,107.346l0,0z"/>
  <path id="svg_3" d="m257,0c-141.386,0 -256,114.614 -256,256s114.614,256 256,256s256,-114.614 256,-256s-114.614,-256 -256,-256zm0,484.002c-125.92,0 -228,-102.08 -228,-228.002s102.08,-228 228,-228s228,102.08 228,228s-102.08,228.002 -228,228.002z"/>
 </g>
</svg>